<svg width="28" height="24" viewBox="0 0 28 24" fill="none" xmlns="http://www.w3.org/2000/svg">
<path d="M0 6.53092L1.13719 7.99597C1.13719 7.99597 3.48286 6.18022 4.26475 7.08782C5.04664 7.99597 8.03049 18.9577 9.02681 20.9808C9.89639 22.7549 12.2952 25.1009 14.9255 23.4246C17.554 21.7495 26.2963 14.4181 27.8606 5.76116C29.4244 -2.89466 17.3408 -1.08224 16.0621 6.45922C19.2598 4.57233 20.9679 7.22621 19.3311 10.2297C17.6966 13.2304 16.2041 15.1878 15.4228 15.1878C14.6426 15.1878 14.0418 13.1803 13.1479 9.67C12.2228 6.04072 12.229 -0.495888 8.38636 0.244975C4.76206 0.943599 0 6.53092 0 6.53092Z" fill="white"/>
</svg>
